<svg id="Icon_-_difficulty_rating" data-name="Icon - difficulty rating" xmlns="http://www.w3.org/2000/svg" width="20.002" height="12.914" viewBox="0 0 20.002 12.914">
  <g id="Subtraction_2" data-name="Subtraction 2" transform="translate(-23564.998 -16479)" fill="none">
    <path d="M23567,16489h0l-2,0a10,10,0,0,1,20,0v0h-2a8,8,0,1,0-16,0Z" stroke="none"/>
    <path d="M 23567 16489 L 23564.998046875 16488.998046875 C 23564.998046875 16486.326171875 23566.0390625 16483.814453125 23567.927734375 16481.92578125 C 23569.818359375 16480.0390625 23572.328125 16479 23574.99609375 16479 C 23577.66796875 16479 23580.1796875 16480.0390625 23582.068359375 16481.92578125 C 23583.958984375 16483.814453125 23585 16486.326171875 23585 16488.99609375 L 23585 16488.998046875 L 23582.998046875 16488.998046875 C 23582.998046875 16486.86328125 23582.166015625 16484.85546875 23580.654296875 16483.341796875 C 23579.142578125 16481.828125 23577.134765625 16480.99609375 23575.001953125 16480.99609375 C 23570.58984375 16480.99609375 23567 16484.5859375 23567 16488.998046875 L 23567 16489 Z" stroke="none" fill="#54d4a2"/>
  </g>
  <line id="Line_49" data-name="Line 49" x1="3" y1="3" transform="translate(7.002 8.5)" fill="none" stroke="#54d4a2" stroke-linecap="round" stroke-width="2"/>
</svg>
