<svg id="Group_475" data-name="Group 475" xmlns="http://www.w3.org/2000/svg" width="16" height="19" viewBox="0 0 16 19">
  <g id="Rectangle_177" data-name="Rectangle 177" fill="none" stroke="#e71c76" stroke-width="2">
    <rect width="16" height="19" stroke="none"/>
    <rect x="1" y="1" width="14" height="17" fill="none"/>
  </g>
  <g id="Group_474" data-name="Group 474" transform="translate(4 5)">
    <g id="Ellipse_10" data-name="Ellipse 10" transform="translate(0 4)" fill="#fff" stroke="#e71c76" stroke-width="1">
      <circle cx="1" cy="1" r="1" stroke="none"/>
      <circle cx="1" cy="1" r="0.5" fill="none"/>
    </g>
    <g id="Ellipse_18" data-name="Ellipse 18" fill="#fff" stroke="#e71c76" stroke-width="1">
      <circle cx="1" cy="1" r="1" stroke="none"/>
      <circle cx="1" cy="1" r="0.5" fill="none"/>
    </g>
    <g id="Ellipse_15" data-name="Ellipse 15" transform="translate(0 8)" fill="#fff" stroke="#e71c76" stroke-width="1">
      <circle cx="1" cy="1" r="1" stroke="none"/>
      <circle cx="1" cy="1" r="0.5" fill="none"/>
    </g>
    <g id="Ellipse_11" data-name="Ellipse 11" transform="translate(3 4)" fill="#fff" stroke="#e71c76" stroke-width="1">
      <circle cx="1" cy="1" r="1" stroke="none"/>
      <circle cx="1" cy="1" r="0.5" fill="none"/>
    </g>
    <g id="Ellipse_17" data-name="Ellipse 17" transform="translate(3)" fill="#fff" stroke="#e71c76" stroke-width="1">
      <circle cx="1" cy="1" r="1" stroke="none"/>
      <circle cx="1" cy="1" r="0.5" fill="none"/>
    </g>
    <g id="Ellipse_14" data-name="Ellipse 14" transform="translate(3 8)" fill="#fff" stroke="#e71c76" stroke-width="1">
      <circle cx="1" cy="1" r="1" stroke="none"/>
      <circle cx="1" cy="1" r="0.5" fill="none"/>
    </g>
    <g id="Ellipse_12" data-name="Ellipse 12" transform="translate(6 4)" fill="#fff" stroke="#e71c76" stroke-width="1">
      <circle cx="1" cy="1" r="1" stroke="none"/>
      <circle cx="1" cy="1" r="0.5" fill="none"/>
    </g>
    <g id="Ellipse_16" data-name="Ellipse 16" transform="translate(6)" fill="#fff" stroke="#e71c76" stroke-width="1">
      <circle cx="1" cy="1" r="1" stroke="none"/>
      <circle cx="1" cy="1" r="0.5" fill="none"/>
    </g>
    <g id="Ellipse_13" data-name="Ellipse 13" transform="translate(6 8)" fill="#fff" stroke="#e71c76" stroke-width="1">
      <circle cx="1" cy="1" r="1" stroke="none"/>
      <circle cx="1" cy="1" r="0.5" fill="none"/>
    </g>
  </g>
</svg>
