<svg xmlns="http://www.w3.org/2000/svg" width="20" height="22.488" viewBox="0 0 20 22.488">
  <g id="Group_564" data-name="Group 564" transform="translate(-1265 -769)">
    <g id="Rectangle_195" data-name="Rectangle 195" transform="translate(1285 778.488) rotate(90)" fill="none" stroke="#70c683" stroke-width="2">
      <path d="M7,0h6a0,0,0,0,1,0,0V20a0,0,0,0,1,0,0H7a7,7,0,0,1-7-7V7A7,7,0,0,1,7,0Z" stroke="none"/>
      <path d="M7,1h4a1,1,0,0,1,1,1V18a1,1,0,0,1-1,1H7a6,6,0,0,1-6-6V7A6,6,0,0,1,7,1Z" fill="none"/>
    </g>
    <g id="Ellipse_19" data-name="Ellipse 19" transform="translate(1267 769)" fill="#fff8eb" stroke="#fff8eb" stroke-width="2">
      <circle cx="8" cy="8" r="8" stroke="none"/>
      <circle cx="8" cy="8" r="7" fill="none"/>
    </g>
    <g id="Ellipse_10" data-name="Ellipse 10" transform="translate(1269 771)" fill="none" stroke="#70c683" stroke-width="2">
      <circle cx="6" cy="6" r="6" stroke="none"/>
      <circle cx="6" cy="6" r="5" fill="none"/>
    </g>
  </g>
</svg>
