<svg id="Icon_-_Location" data-name="Icon - Location" xmlns="http://www.w3.org/2000/svg" width="15.059" height="18.978" viewBox="0 0 15.059 18.978">
  <g id="Path_494" data-name="Path 494" fill="none">
    <path d="M7.53,0a7.53,7.53,0,0,1,7.53,7.53c0,4.158-7.12,11.353-7.53,11.448S0,11.688,0,7.53A7.53,7.53,0,0,1,7.53,0Z" stroke="none"/>
    <path d="M 7.529541015625 1.999996185302734 C 4.480541229248047 1.999996185302734 2.000000953674316 4.480536460876465 2.000000953674316 7.529536247253418 C 2.000000953674316 7.85197639465332 2.098331451416016 8.588536262512207 2.756860733032227 9.898837089538574 C 3.242180824279785 10.86449718475342 3.929250717163086 11.94426727294922 4.798980712890625 13.10814666748047 C 5.778573989868164 14.4190559387207 6.770052909851074 15.54064750671387 7.490744590759277 16.29163932800293 C 8.202921867370605 15.54965209960938 9.181924819946289 14.45625305175781 10.17255115509033 13.15807723999023 C 12.85092067718506 9.648166656494141 13.05908107757568 7.962556838989258 13.05908107757568 7.529536247253418 C 13.05908107757568 4.480536460876465 10.57854080200195 1.999996185302734 7.529541015625 1.999996185302734 M 7.529541015625 -3.814697265625e-06 C 11.68799114227295 -3.814697265625e-06 15.05908107757568 3.371087074279785 15.05908107757568 7.529536247253418 C 15.05908107757568 11.68799686431885 7.939471244812012 18.88268661499023 7.529541015625 18.97753715515137 C 7.119618892669678 19.07238960266113 9.5367431640625e-07 11.68799877166748 9.5367431640625e-07 7.529536247253418 C 9.5367431640625e-07 3.371087074279785 3.371090888977051 -3.814697265625e-06 7.529541015625 -3.814697265625e-06 Z" stroke="none" fill="#8a2e6f"/>
  </g>
  <g id="Ellipse_9" data-name="Ellipse 9" transform="translate(4 4)" fill="none" stroke="#8a2e6f" stroke-width="2">
    <circle cx="3.5" cy="3.5" r="3.5" stroke="none"/>
    <circle cx="3.5" cy="3.5" r="2.5" fill="none"/>
  </g>
</svg>
